<svg width="24" height="24" viewBox="0 0 24 24" fill="none" xmlns="http://www.w3.org/2000/svg">
  <path d="M20.01 15.38C18.78 15.38 17.59 15.18 16.48 14.82C15.39 14.46 14.38 13.96 13.47 13.32C12.56 12.68 11.76 11.92 11.07 11.04C10.38 10.16 9.81 9.18 9.37 8.1C8.93 7.02 8.71 5.86 8.71 4.62C8.71 4.38 8.69 4.14 8.66 3.9C8.63 3.66 8.58 3.42 8.51 3.18L7.57 3.36C7.17 3.44 6.78 3.58 6.4 3.78C6.02 3.98 5.66 4.22 5.31 4.5C5.09 4.66 4.87 4.78 4.66 4.86L4.3 4.58C3.9 4.34 3.48 4.22 3.04 4.22C2.6 4.22 2.18 4.34 1.78 4.58L1.42 4.86C1.02 5.14 0.68 5.5 0.4 5.94C0.12 6.38 0 6.84 0 7.32C0 7.8 0.12 8.26 0.4 8.7C0.68 9.14 1.02 9.5 1.42 9.78L2.18 10.44C2.54 10.72 2.78 11.08 2.9 11.52C3.02 11.96 3.06 12.4 3.02 12.84C2.98 13.28 2.86 13.72 2.66 14.16L2.5 14.46C2.3 14.86 2.18 15.28 2.14 15.72C2.1 16.16 2.14 16.6 2.26 17.04C2.38 17.48 2.58 17.9 2.86 18.3L3.14 18.66C3.42 19.06 3.78 19.4 4.22 19.68C4.66 19.96 5.12 20.14 5.6 20.22C6.08 20.3 6.56 20.3 7.04 20.22C7.52 20.14 7.98 19.96 8.42 19.68L9.18 19.02C9.54 18.74 9.98 18.56 10.5 18.48C11.02 18.4 11.54 18.42 12.06 18.54C12.58 18.66 13.08 18.88 13.56 19.2L14.04 19.58C14.44 19.9 14.74 20.28 14.94 20.72C15.14 21.16 15.24 21.62 15.24 22.08V22.5C15.24 23.1 14.94 23.64 14.44 24C13.94 24.36 13.38 24.56 12.76 24.56C12.14 24.56 11.56 24.36 11.02 24L10.84 23.88C10.6 23.64 10.44 23.36 10.36 23.04C10.28 22.72 10.28 22.4 10.36 22.08C10.44 21.76 10.6 21.46 10.84 21.18L11.68 20.16C11.92 19.88 12.24 19.68 12.64 19.56C13.04 19.44 13.46 19.42 13.88 19.5C14.3 19.58 14.7 19.76 15.06 20.04L15.36 20.28C15.6 20.48 15.76 20.74 15.84 21.04C15.92 21.34 15.92 21.64 15.84 21.94C15.76 22.24 15.6 22.52 15.36 22.78L15.08 23.08C14.8 23.4 14.44 23.64 14 23.8C13.56 23.96 13.1 24.02 12.64 23.98C12.18 23.94 11.74 23.8 11.32 23.56L10.56 23.02C9.56 22.38 8.72 21.54 8.04 20.5C7.36 19.46 6.86 18.28 6.54 17C6.22 15.72 6.12 14.38 6.24 13.04C6.36 11.7 6.7 10.4 7.26 9.16L7.62 8.38C7.78 8.02 8.02 7.72 8.34 7.48C8.66 7.24 9.04 7.1 9.44 7.06C9.84 7.02 10.24 7.08 10.64 7.24L11.46 7.78C11.86 8.02 12.18 8.36 12.42 8.8C12.66 9.24 12.82 9.72 12.88 10.22C12.94 10.72 12.92 11.22 12.8 11.72C12.68 12.22 12.48 12.7 12.2 13.16L12.18 13.18C12.26 13.06 12.36 12.96 12.48 12.88C12.6 12.8 12.74 12.74 12.88 12.7C13.02 12.66 13.16 12.64 13.3 12.64H14.1C14.3 12.64 14.48 12.7 14.64 12.82C14.8 12.94 14.9 13.1 14.94 13.28C14.98 13.46 14.96 13.64 14.88 13.8C14.8 13.96 14.66 14.1 14.48 14.2C14.3 14.3 14.1 14.36 13.88 14.38L13.72 14.4C13.56 14.4 13.42 14.44 13.3 14.52C13.18 14.6 13.08 14.72 13 14.88C12.92 15.04 12.86 15.22 12.82 15.42C12.78 15.62 12.78 15.82 12.82 16.02C12.86 16.22 12.92 16.4 13 16.56L13.24 16.96C13.56 17.56 14.02 18.1 14.6 18.58C15.18 19.06 15.86 19.44 16.62 19.72C17.38 20 18.22 20.18 19.14 20.26C19.5 20.3 19.84 20.38 20.16 20.5C20.48 20.62 20.76 20.78 21 20.98L20.01 15.38Z" fill="#3B82F6"/>
</svg>